<?xml version="1.0" standalone="no"?><!DOCTYPE svg PUBLIC "-//W3C//DTD SVG 1.1//EN" "http://www.w3.org/Graphics/SVG/1.1/DTD/svg11.dtd"><svg t="1608779527012" class="icon" viewBox="0 0 1024 1024" version="1.1" xmlns="http://www.w3.org/2000/svg" p-id="27554" width="32" height="32" xmlns:xlink="http://www.w3.org/1999/xlink"><defs><style type="text/css"></style></defs><path d="M919.82 384.04c-1.4 0-2.78 0.04-4.12 0.1-99.6 5.68-281.02 26-403.68 95.14-122.66-69.14-304.1-89.46-403.68-95.14-1.34-0.08-2.72-0.1-4.12-0.1C63.42 384.02 0 412.72 0 484.44v356.1c0 53.38 42.5 97.4 96.68 100.24 68.82 3.62 241.12 18.16 354 74.94 9.36 4.74 19.32 7 29.32 7.68v0.54h4.54c0.18 0 0.36 0.06 0.52 0.06h53.88c0.18 0 0.36-0.06 0.52-0.06H544v-0.54c10-0.68 19.96-2.96 29.32-7.68 112.88-56.78 285.18-71.3 354-74.94 54.18-2.84 96.68-46.88 96.68-100.24V484.44c0-71.72-63.42-100.4-104.18-100.4zM480 958.7c-0.18-0.08-0.36-0.04-0.56-0.14-119.18-59.94-288.86-76.9-379.4-81.68-20.2-1.06-36.04-17.02-36.04-36.34V484.44c0-12.1 3.54-20 11.86-26.4 8.94-6.88 20.94-10.02 28.8-10.02 74.02 4.22 258.54 21.16 375.34 86.72v423.96z m480-118.16c0 19.32-15.84 35.28-36.06 36.34-90.54 4.76-260.22 21.72-379.52 81.74-0.14 0.08-0.28 0.04-0.44 0.1V534.74c116.78-65.58 301.32-82.5 375.02-86.7l0.78-0.02c0.4 0 40.18 0.98 40.18 36.42v356.1zM512 383.98c106.04 0 192-85.96 192-191.98S618.04 0 512 0s-192 85.96-192 191.98 85.96 192 192 192zM512 64c70.58 0 128 57.42 128 128s-57.42 128-128 128-128-57.42-128-128 57.42-128 128-128z" fill="" p-id="27555"></path></svg>